<?xml version="1.0" standalone="no"?>
<!DOCTYPE svg PUBLIC "-//W3C//DTD SVG 20010904//EN"
 "http://www.w3.org/TR/2001/REC-SVG-20010904/DTD/svg10.dtd">
<svg version="1.0" xmlns="http://www.w3.org/2000/svg"
 width="3720.000000pt" height="4096.000000pt" viewBox="0 0 3720.000000 4096.000000"
 preserveAspectRatio="xMidYMid meet">

<g transform="translate(0.000000,4096.000000) scale(0.100000,-0.100000)"
fill="#000000" stroke="none">
<path d="M18710 37323 c-169 -2 -263 -7 -277 -15 -18 -9 -29 -9 -49 0 -34 16
-422 6 -581 -14 -65 -9 -129 -15 -143 -13 -63 5 -152 2 -230 -9 -47 -7 -152
-16 -235 -21 -240 -14 -676 -72 -1155 -153 -129 -22 -260 -44 -290 -49 -482
-81 -1381 -306 -1970 -494 -467 -149 -1054 -360 -1353 -486 -76 -33 -140 -59
-143 -59 -2 0 -43 -18 -90 -40 -47 -22 -88 -40 -91 -40 -2 0 -86 -39 -186 -86
-100 -47 -231 -109 -292 -137 -304 -141 -838 -424 -1165 -616 -80 -46 -170
-98 -200 -115 -103 -57 -490 -300 -703 -441 -332 -220 -754 -526 -1032 -749
-240 -192 -323 -261 -435 -356 -68 -58 -151 -127 -185 -155 -154 -124 -607
-547 -870 -810 -240 -241 -678 -710 -822 -881 -37 -45 -113 -134 -168 -199
-144 -169 -500 -618 -657 -830 -222 -299 -599 -865 -813 -1220 -60 -99 -120
-198 -135 -220 -15 -22 -49 -80 -75 -130 -26 -49 -51 -94 -55 -100 -8 -11 -31
-51 -147 -260 -101 -182 -453 -887 -518 -1040 -26 -60 -80 -184 -120 -275 -40
-91 -83 -187 -95 -215 -12 -27 -40 -97 -62 -155 -22 -58 -75 -193 -118 -300
-94 -235 -299 -830 -383 -1110 -351 -1169 -552 -2231 -662 -3490 -42 -486 -47
-615 -48 -1305 0 -735 13 -1062 58 -1447 8 -70 15 -158 15 -195 0 -37 5 -95
10 -128 6 -33 19 -139 30 -235 75 -652 159 -1127 326 -1840 180 -771 428
-1559 747 -2375 187 -479 543 -1234 809 -1715 20 -36 51 -94 70 -130 43 -80
74 -135 153 -270 34 -58 97 -166 140 -240 43 -74 106 -178 140 -230 34 -52 97
-151 141 -220 115 -184 333 -504 453 -670 58 -79 113 -154 121 -166 42 -62
243 -323 395 -514 381 -478 668 -803 1185 -1344 265 -277 987 -934 1320 -1201
48 -38 120 -97 160 -130 41 -33 122 -96 182 -140 59 -44 226 -168 370 -276
409 -305 923 -643 1408 -927 484 -283 399 -236 855 -467 404 -205 602 -299
766 -366 54 -21 137 -57 185 -80 91 -42 169 -74 494 -206 258 -105 476 -184
935 -338 606 -204 1493 -430 2145 -545 402 -72 1052 -164 1300 -185 41 -3 136
-12 210 -20 74 -8 216 -19 315 -25 99 -6 223 -15 275 -20 158 -16 259 -20 635
-25 390 -6 1118 8 1255 25 47 5 177 17 290 25 113 9 237 18 275 21 39 3 162
17 275 31 113 13 246 28 295 33 265 24 991 149 1432 246 335 73 655 154 883
221 47 14 171 50 275 80 259 74 232 66 500 155 295 99 468 160 650 228 144 54
629 248 700 280 22 9 78 34 125 55 47 21 164 76 260 122 96 47 202 96 235 110
73 31 480 235 590 296 44 24 157 86 250 137 521 285 1129 664 1540 961 421
303 573 415 691 511 206 167 562 463 579 482 6 7 51 45 100 86 50 41 133 115
185 165 166 156 361 338 465 432 96 87 289 281 405 408 30 33 118 128 195 210
77 83 178 193 226 245 203 226 647 754 761 906 29 39 114 152 188 251 74 99
162 218 194 264 209 296 266 380 411 604 223 347 356 562 465 755 51 91 102
178 113 194 38 54 519 1002 587 1156 13 30 64 145 113 255 49 110 97 220 106
245 93 236 168 425 209 525 73 178 248 697 399 1180 76 242 178 620 218 805 8
36 30 133 50 215 161 677 309 1639 365 2380 5 72 16 218 24 325 28 359 38 922
25 1459 -6 272 -15 505 -20 519 -5 13 -12 72 -14 131 -11 228 -37 561 -51 656
-8 55 -21 163 -29 240 -34 305 -117 821 -216 1335 -50 258 -221 958 -294 1200
-7 25 -23 79 -35 120 -130 448 -443 1349 -549 1584 -11 22 -38 88 -61 146 -59
148 -93 227 -162 370 -75 156 -116 244 -158 340 -37 85 -237 480 -342 675 -39
72 -103 191 -143 265 -196 367 -641 1088 -848 1373 -40 56 -101 143 -135 192
-173 256 -616 827 -848 1095 -45 52 -136 158 -202 235 -242 284 -741 809 -977
1029 -77 71 -203 189 -280 262 -181 170 -351 321 -445 396 -41 33 -109 91
-150 128 -190 170 -736 591 -1103 848 -438 308 -974 649 -1350 859 -43 24 -95
54 -115 67 -89 56 -373 205 -687 362 -353 176 -425 211 -685 324 -85 38 -189
84 -230 103 -41 19 -104 44 -140 57 -36 13 -89 34 -118 47 -29 13 -207 82
-395 152 -663 248 -1137 398 -1772 561 -586 150 -1293 284 -1925 365 -151 20
-282 37 -290 40 -13 4 -166 17 -579 51 -41 3 -156 9 -255 13 -100 4 -188 11
-196 16 -7 5 -131 9 -274 10 -144 1 -286 4 -316 6 -30 3 -170 4 -310 2z m955
-853 c358 -27 768 -62 870 -75 61 -7 162 -19 225 -25 321 -32 663 -89 1230
-206 451 -93 730 -161 1195 -294 232 -66 867 -276 1030 -340 44 -17 91 -35
105 -40 33 -10 219 -81 355 -135 61 -24 197 -82 304 -130 107 -47 243 -106
303 -130 130 -54 789 -382 1013 -505 619 -341 1438 -866 1934 -1240 40 -30 94
-71 119 -90 47 -34 181 -141 322 -254 192 -156 560 -471 706 -606 273 -252
486 -455 625 -596 249 -255 577 -604 677 -723 37 -43 112 -132 167 -196 191
-225 276 -331 433 -538 86 -115 175 -232 198 -260 159 -203 503 -712 731
-1082 256 -415 419 -707 706 -1265 203 -394 340 -704 572 -1285 185 -465 285
-759 470 -1380 161 -542 306 -1189 415 -1850 54 -328 129 -944 150 -1235 5
-74 14 -193 20 -265 19 -247 33 -970 25 -1310 -5 -181 -9 -378 -10 -437 -11
-561 -153 -1731 -289 -2393 -65 -315 -201 -870 -288 -1175 -38 -135 -79 -279
-90 -320 -23 -89 -67 -228 -114 -360 -66 -188 -112 -316 -134 -370 -12 -30
-37 -98 -55 -150 -18 -52 -42 -117 -53 -145 -11 -27 -38 -97 -60 -155 -64
-166 -151 -376 -261 -629 -110 -253 -430 -905 -535 -1091 -305 -537 -396 -689
-636 -1060 -73 -113 -156 -239 -184 -280 -29 -41 -106 -151 -171 -245 -113
-163 -342 -471 -463 -622 -31 -39 -79 -100 -107 -135 -77 -98 -192 -236 -260
-313 -35 -38 -89 -102 -121 -141 -119 -143 -238 -277 -372 -417 -76 -78 -180
-189 -231 -247 -112 -125 -292 -304 -456 -454 -66 -60 -165 -152 -220 -205
-55 -53 -134 -125 -175 -161 -41 -36 -95 -84 -120 -107 -25 -23 -74 -65 -110
-93 -36 -28 -81 -66 -101 -84 -154 -142 -608 -498 -1010 -791 -237 -173 -704
-482 -939 -622 -173 -102 -601 -347 -705 -403 -331 -177 -450 -238 -665 -343
-230 -112 -625 -297 -635 -297 -2 0 -46 -18 -97 -39 -290 -123 -996 -388
-1223 -460 -210 -66 -458 -139 -635 -186 -91 -24 -205 -56 -255 -70 -210 -61
-598 -152 -895 -210 -732 -142 -1207 -208 -1785 -249 -690 -50 -821 -55 -855
-34 -15 10 -22 9 -38 -5 -17 -15 -55 -17 -423 -16 -554 1 -1162 26 -1225 49
-14 6 -59 10 -100 10 -84 0 -351 24 -499 45 -55 8 -131 17 -170 20 -38 4 -128
15 -200 26 -71 11 -177 26 -235 34 -121 17 -385 62 -447 76 -24 5 -76 14 -115
19 -221 32 -958 208 -1401 335 -396 114 -868 271 -1177 392 -63 25 -167 65
-230 90 -698 272 -1327 572 -1943 925 -243 139 -524 307 -650 388 -194 125
-645 426 -727 485 -41 29 -102 73 -135 96 -514 368 -1044 806 -1520 1258 -44
42 -146 139 -228 215 -146 137 -549 555 -767 796 -272 300 -750 891 -1022
1264 -196 268 -579 844 -708 1066 -40 69 -99 168 -130 220 -82 136 -248 435
-315 570 -31 63 -102 199 -156 301 -55 102 -117 226 -138 275 -21 49 -70 154
-109 234 -104 216 -119 250 -192 430 -37 91 -97 237 -133 325 -36 88 -84 210
-106 270 -22 61 -71 197 -110 304 -72 195 -109 305 -176 526 -21 66 -46 147
-56 180 -29 89 -101 346 -152 545 -170 653 -308 1341 -377 1875 -17 132 -33
247 -35 255 -7 27 -54 520 -70 740 -50 682 -56 1461 -15 2135 20 334 57 738
79 860 5 28 12 82 16 120 6 76 46 370 71 530 35 219 131 708 209 1060 108 490
283 1093 470 1625 78 222 121 338 264 713 104 271 379 883 532 1182 183 357
239 465 284 540 27 44 85 145 130 225 169 299 213 373 335 560 236 362 466
705 545 814 299 409 477 634 859 1086 112 133 243 278 426 470 86 91 197 210
246 265 99 109 280 288 359 355 28 23 100 90 160 149 152 148 365 343 459 421
44 36 109 91 145 123 181 158 349 291 691 549 74 56 151 113 170 128 108 83
528 374 706 490 681 443 1571 922 2314 1245 158 69 388 165 450 188 36 14 144
55 240 92 852 328 1712 569 2730 764 250 48 572 99 765 122 98 11 182 22 186
24 3 2 84 11 180 20 96 8 239 22 319 30 80 8 226 19 325 25 99 5 198 13 220
16 140 23 1469 26 1760 4z"/>
<path d="M18585 35764 c-134 -15 -316 -48 -385 -69 -25 -7 -88 -26 -140 -41
-52 -15 -107 -34 -122 -41 -15 -7 -61 -13 -104 -13 -174 0 -368 -42 -784 -171
-127 -40 -370 -179 -370 -212 0 -10 56 -6 160 13 36 7 152 12 260 13 202 0
297 -12 525 -64 131 -30 233 -64 223 -74 -2 -2 -96 9 -208 26 -294 44 -581 51
-777 19 -77 -12 -169 -35 -208 -50 -38 -15 -93 -35 -121 -44 -71 -23 -166
-105 -277 -239 -52 -61 -104 -121 -117 -132 -62 -55 -122 -151 -287 -460 -45
-82 -95 -177 -113 -210 -107 -198 -143 -275 -190 -403 -28 -78 -81 -215 -117
-305 -94 -236 -99 -247 -160 -422 -90 -260 -103 -305 -119 -405 -8 -52 -30
-160 -49 -240 -40 -165 -92 -401 -105 -475 -5 -27 -20 -111 -34 -185 -94 -512
-155 -1228 -127 -1506 7 -71 12 -185 11 -254 0 -69 -2 -408 -4 -755 -3 -624
-8 -724 -41 -910 -8 -44 -26 -159 -40 -255 -14 -95 -41 -233 -60 -306 -43
-166 -146 -452 -235 -654 -38 -85 -78 -189 -90 -230 -29 -97 -100 -260 -247
-560 -66 -135 -137 -288 -157 -341 -20 -54 -71 -164 -113 -245 -126 -247 -222
-462 -270 -603 -24 -74 -55 -155 -68 -180 -22 -45 -37 -84 -117 -306 -133
-370 -158 -463 -199 -739 -16 -110 -31 -207 -34 -215 -2 -9 -9 -77 -15 -151
-6 -74 -16 -153 -22 -175 l-11 -40 -8 50 c-8 47 5 348 16 377 3 7 11 60 19
118 23 169 86 531 101 580 69 223 200 563 289 755 21 44 49 118 63 165 15 55
84 206 193 425 93 187 181 378 196 424 14 46 39 107 55 135 34 60 129 252 129
261 0 4 33 75 74 158 80 166 87 183 111 272 9 33 40 123 70 200 121 313 174
480 245 765 76 305 80 399 80 1759 0 1186 -1 1137 41 1521 38 353 159 949 257
1270 27 89 47 167 88 350 18 82 103 341 133 405 10 22 46 110 79 195 33 85 80
198 105 250 24 52 52 126 61 164 9 37 42 116 73 175 31 58 76 144 100 191 25
47 73 128 107 180 63 96 96 158 96 180 0 25 -36 2 -77 -50 -24 -30 -55 -68
-69 -85 -14 -16 -55 -66 -92 -110 -64 -75 -123 -159 -152 -214 -7 -14 -40 -54
-74 -90 -57 -61 -167 -208 -229 -308 -63 -100 -318 -567 -365 -668 -28 -60
-67 -162 -88 -225 -20 -63 -63 -183 -95 -267 -57 -150 -162 -477 -194 -603 -9
-36 -29 -112 -45 -170 -16 -58 -37 -157 -45 -220 -9 -63 -27 -160 -40 -215
-13 -55 -35 -158 -49 -230 -42 -212 -95 -367 -207 -602 -27 -58 -65 -151 -85
-206 -19 -55 -38 -105 -43 -111 -5 -6 -44 -78 -86 -161 -43 -82 -107 -192
-142 -243 -36 -51 -85 -132 -110 -180 -54 -104 -80 -138 -203 -267 -52 -55
-128 -140 -168 -188 -53 -63 -97 -104 -161 -146 -48 -32 -154 -120 -235 -196
-82 -75 -179 -156 -215 -180 -77 -51 -149 -122 -148 -148 0 -16 2 -16 26 0 14
9 44 31 66 48 22 18 77 54 123 80 45 27 110 74 145 104 34 31 118 101 186 155
67 54 170 144 228 200 126 120 328 351 368 421 16 28 75 121 132 208 91 138
207 351 227 412 20 64 133 309 145 313 16 5 11 -30 -29 -203 -16 -66 -33 -154
-40 -195 -6 -41 -15 -92 -21 -113 -5 -20 -25 -137 -44 -260 -33 -212 -91 -458
-148 -632 -14 -44 -42 -138 -62 -208 -20 -71 -55 -175 -77 -230 -22 -56 -55
-147 -73 -202 -72 -215 -139 -349 -249 -494 -39 -51 -104 -141 -144 -199 -44
-65 -111 -145 -172 -204 -123 -121 -188 -198 -239 -285 -21 -38 -54 -81 -71
-98 -41 -39 -99 -121 -193 -275 -62 -103 -86 -155 -131 -285 -29 -88 -68 -199
-85 -246 -17 -48 -40 -126 -50 -175 -10 -49 -22 -98 -26 -109 -15 -44 37 33
124 185 50 85 121 193 158 240 76 95 299 322 567 576 264 249 416 412 490 524
47 71 178 269 237 356 59 89 63 96 124 244 29 69 75 179 102 245 71 170 131
322 147 375 l14 45 1 -42 c1 -44 -53 -242 -140 -510 -27 -83 -67 -222 -90
-310 -42 -167 -92 -315 -141 -423 -16 -36 -54 -128 -85 -205 -30 -77 -71 -171
-90 -210 -20 -38 -52 -121 -73 -185 -21 -63 -72 -187 -114 -275 -106 -220
-106 -220 -152 -300 -51 -90 -124 -239 -124 -257 -1 -7 -23 -53 -49 -103 -27
-49 -70 -130 -96 -180 -26 -49 -70 -130 -98 -178 -90 -153 -98 -170 -129 -257
-16 -47 -60 -148 -98 -225 -125 -254 -240 -570 -275 -754 -48 -260 -45 -850 5
-1076 14 -64 85 -273 117 -345 40 -92 235 -427 286 -493 78 -102 95 -132 111
-199 8 -34 25 -90 36 -123 12 -33 36 -105 55 -160 18 -55 55 -158 83 -230 27
-71 56 -155 65 -185 37 -124 313 -608 325 -571 2 6 -30 111 -72 234 -168 495
-271 1038 -252 1327 18 265 76 525 150 675 50 101 100 175 119 175 9 0 12 -72
12 -322 0 -349 6 -437 60 -818 31 -225 78 -408 130 -511 35 -69 219 -395 242
-429 12 -19 23 -39 23 -45 0 -18 87 -154 137 -213 54 -63 94 -101 156 -145 23
-16 74 -60 113 -96 75 -71 144 -114 351 -224 104 -55 160 -93 260 -177 71 -59
138 -122 151 -139 12 -17 64 -62 116 -101 51 -38 133 -113 182 -166 49 -53
157 -164 240 -248 83 -83 182 -194 221 -246 39 -52 86 -109 104 -126 19 -16
47 -44 63 -62 l30 -32 -32 -11 c-17 -6 -38 -22 -47 -36 -16 -23 -17 -166 -16
-1878 1 -1018 5 -1865 10 -1881 5 -21 15 -31 37 -35 16 -4 480 -7 1032 -8
l1002 -1 0 353 c0 193 -4 358 -9 365 -7 11 -119 13 -603 12 -327 0 -614 2
-636 6 -26 4 -43 13 -46 23 -3 9 -6 194 -8 411 l-3 394 35 8 c19 4 248 7 508
7 260 -1 476 2 480 6 9 9 7 602 -2 678 l-8 58 -494 -2 c-271 -2 -497 1 -501 5
-4 4 -8 182 -8 394 l0 386 50 9 c28 5 317 7 643 5 l593 -3 7 25 c8 29 5 595
-3 657 l-6 43 -897 2 -897 3 -13 45 c-7 25 -21 68 -32 95 -10 28 -37 102 -60
165 -24 63 -57 143 -76 177 -43 81 -104 224 -147 348 -47 136 -60 265 -55 536
l4 214 38 110 c47 139 125 299 215 440 38 61 87 139 107 175 21 36 79 108 129
160 51 52 141 147 201 211 60 64 156 160 214 212 181 165 610 608 610 631 0 8
-67 43 -95 50 -32 8 -206 94 -265 131 -32 20 -219 104 -300 135 -19 8 -51 23
-70 35 -38 24 -182 85 -199 85 -53 0 -303 149 -462 276 -147 117 -268 315
-324 531 -9 34 -15 102 -15 168 1 208 34 360 132 605 38 96 78 205 88 243 10
37 26 79 36 95 10 15 56 101 102 192 47 91 92 176 102 190 33 48 120 233 136
288 9 30 30 78 47 106 16 28 54 103 84 166 58 124 178 331 227 394 39 48 85
75 211 121 145 54 190 79 203 112 36 95 63 181 81 268 31 147 31 146 41 140 4
-3 11 -33 14 -68 4 -34 15 -152 26 -262 31 -315 43 -712 35 -1160 -6 -388 -6
-401 14 -447 34 -80 39 -71 61 97 29 217 18 784 -20 1125 -6 47 -17 191 -25
320 -8 129 -20 278 -25 330 -32 291 -54 445 -76 537 -28 121 -27 113 -11 113
21 0 210 -79 225 -94 7 -7 20 -55 28 -107 19 -122 36 -171 101 -302 102 -205
121 -282 130 -517 7 -202 -4 -318 -63 -670 -46 -275 -62 -457 -50 -573 7 -60
13 -73 52 -121 l44 -55 -61 -91 c-87 -130 -94 -206 -22 -255 43 -29 108 -33
152 -10 16 8 63 52 106 99 44 49 118 115 174 155 53 38 131 101 174 140 128
117 218 178 376 252 177 83 308 119 544 150 142 18 195 20 437 16 389 -7 593
-41 957 -158 67 -21 129 -39 137 -39 67 0 470 -209 636 -330 36 -26 85 -59
110 -73 64 -37 198 -147 256 -209 27 -29 76 -77 108 -108 149 -138 258 -256
310 -332 31 -46 75 -103 99 -128 74 -78 257 -340 307 -440 37 -73 113 -205
187 -325 75 -121 127 -229 192 -392 33 -81 100 -234 150 -340 50 -106 91 -195
91 -199 0 -3 25 -63 57 -133 31 -69 69 -173 84 -231 38 -143 54 -184 73 -188
48 -10 26 205 -53 519 -33 129 -74 272 -92 319 -17 47 -38 101 -45 121 -7 20
-42 100 -78 177 -36 78 -77 169 -92 204 -14 35 -40 90 -56 122 -17 33 -45 103
-62 155 -18 53 -56 141 -86 196 -45 85 -97 183 -253 480 -15 28 -46 93 -70
145 -24 52 -91 174 -149 270 -58 96 -138 234 -178 305 -118 214 -179 309 -265
414 -59 74 -90 116 -151 211 -44 67 -80 105 -179 186 -49 40 -126 107 -170
149 -83 79 -228 187 -304 224 -23 13 -66 42 -95 65 -29 23 -87 64 -129 92 -67
42 -157 104 -272 184 -16 11 -65 43 -107 70 -87 55 -118 83 -118 105 0 14 144
184 191 227 11 9 47 54 81 100 73 99 205 264 265 331 23 27 61 86 83 133 23
46 69 121 103 166 96 126 126 169 158 229 17 31 68 105 114 165 46 60 126 165
177 233 51 68 114 150 140 181 25 31 63 90 83 131 43 85 103 186 174 291 67
101 168 304 240 483 33 83 82 202 109 265 63 147 163 452 196 597 15 62 33
174 41 250 9 76 25 201 37 278 19 124 21 186 22 535 1 379 0 403 -26 580 -15
102 -32 228 -38 280 -24 210 -197 708 -319 921 -21 37 -49 97 -61 135 -24 73
-78 178 -115 222 -12 15 -90 128 -174 252 -238 353 -333 485 -392 547 -31 32
-68 78 -84 103 -38 60 -153 171 -250 241 -44 32 -107 83 -140 113 -33 30 -82
72 -110 93 -27 21 -56 44 -63 51 -7 6 -17 12 -20 12 -4 0 -18 10 -32 23 -32
29 -122 95 -185 137 -159 105 -240 162 -327 227 -98 74 -213 143 -239 143 -20
0 -134 55 -172 84 -18 13 -43 27 -57 31 -14 4 -57 23 -97 41 -40 18 -94 40
-120 48 -26 8 -73 24 -103 36 -74 28 -215 57 -390 81 -165 22 -216 22 -385 3z
m71 -698 c102 -18 141 -35 181 -77 44 -47 99 -163 112 -233 6 -33 12 -61 14
-63 2 -2 44 -12 93 -22 49 -11 121 -30 159 -44 140 -50 468 -211 575 -282 19
-13 76 -40 126 -60 51 -20 123 -57 161 -83 38 -26 101 -68 139 -94 38 -26 137
-93 219 -148 83 -55 170 -115 195 -133 25 -18 77 -54 115 -81 63 -45 150 -115
214 -173 23 -21 141 -87 141 -79 0 2 -36 66 -81 141 -44 76 -91 160 -105 186
-32 64 -205 292 -302 398 -254 279 -398 397 -622 513 -236 121 -364 168 -605
219 -192 42 -242 50 -368 58 -71 5 -132 12 -135 15 -13 14 15 19 140 27 136 8
334 -2 398 -21 19 -6 64 -15 100 -21 159 -25 501 -172 615 -264 22 -18 65 -45
95 -60 74 -37 174 -119 246 -201 32 -37 111 -120 174 -183 131 -132 180 -194
241 -301 23 -41 59 -95 79 -120 68 -82 222 -379 234 -450 4 -24 12 -50 18 -57
16 -20 43 -69 88 -160 48 -97 59 -162 36 -217 -14 -33 -14 -49 -4 -128 12 -86
14 -91 50 -119 49 -40 62 -82 97 -329 51 -353 57 -496 52 -1350 -2 -431 -12
-621 -41 -785 -31 -168 -106 -480 -145 -599 -24 -75 -53 -177 -65 -228 -31
-136 -131 -387 -240 -603 -53 -104 -118 -237 -144 -295 -78 -168 -166 -311
-294 -477 -26 -34 -65 -96 -87 -138 -23 -44 -71 -110 -110 -154 -38 -42 -95
-106 -125 -141 -30 -36 -74 -85 -96 -110 -23 -25 -55 -60 -70 -79 -16 -19 -56
-53 -90 -75 -34 -23 -91 -62 -126 -88 -69 -51 -138 -85 -138 -69 0 15 73 85
174 166 107 85 120 99 214 225 39 52 101 124 137 160 82 80 166 190 205 269
16 32 40 72 53 87 41 50 91 126 157 239 35 61 81 136 102 168 22 32 57 104 78
160 20 56 69 163 107 237 38 74 82 169 97 210 16 41 42 104 58 140 53 115 85
212 113 340 23 108 83 350 101 407 3 10 -4 0 -15 -21 -12 -22 -21 -44 -21 -49
0 -5 -11 -22 -25 -39 -14 -16 -25 -37 -25 -46 0 -31 -56 -127 -145 -253 -109
-154 -144 -199 -155 -199 -5 0 -12 21 -15 48 -12 82 -91 364 -121 427 -15 33
-47 92 -70 130 -44 75 -147 256 -178 317 -11 20 -27 46 -37 59 -16 22 -17 22
-27 3 -6 -11 -18 -55 -26 -99 -12 -58 -23 -85 -39 -98 -42 -34 -119 -112 -129
-130 -18 -35 -52 -38 -133 -12 -42 14 -91 25 -110 25 -84 0 -251 -43 -398
-102 -132 -54 -162 -62 -232 -66 l-80 -4 -112 56 c-143 72 -147 73 -283 101
-63 13 -133 31 -155 40 -40 17 -148 87 -174 112 -23 24 -89 53 -120 53 -21 0
-38 -10 -60 -35 -53 -61 -53 -105 1 -185 66 -95 114 -171 147 -229 18 -33 75
-105 127 -160 153 -164 155 -179 48 -276 -105 -95 -124 -147 -85 -237 29 -67
95 -125 197 -174 50 -24 113 -47 139 -51 84 -11 130 -74 99 -135 -8 -15 -42
-67 -77 -116 -35 -49 -71 -111 -81 -138 -10 -27 -23 -62 -29 -78 -15 -41 -81
-79 -215 -122 -64 -21 -128 -47 -140 -58 -32 -28 -58 -90 -67 -156 -13 -104
-44 -124 -129 -85 -77 35 -158 49 -201 35 -18 -6 -52 -31 -74 -55 -37 -40 -41
-49 -41 -97 0 -29 5 -70 11 -91 13 -50 6 -66 -42 -100 -45 -31 -64 -69 -49
-96 21 -40 61 -54 162 -59 96 -5 125 -15 71 -26 -73 -13 -245 -27 -308 -24
-78 3 -72 -8 -58 94 8 69 -36 131 -142 200 -76 48 -118 62 -217 73 -129 15
-179 46 -245 155 -33 54 -50 67 -227 183 -279 183 -321 234 -320 398 1 156 52
305 159 465 24 36 54 76 67 90 32 34 68 86 68 98 0 5 -30 40 -66 77 -74 76
-103 130 -104 193 0 54 18 89 94 182 34 41 77 98 96 125 57 85 120 155 159
174 20 10 64 21 99 24 l63 6 -20 -27 c-11 -15 -35 -43 -52 -62 -54 -60 -82
-134 -87 -230 -4 -80 -2 -90 28 -153 18 -38 34 -67 35 -65 2 2 -5 37 -16 78
-25 93 -20 149 20 234 31 63 122 166 147 166 8 0 16 -20 21 -52 l7 -53 11 66
c18 104 70 157 166 168 76 9 102 41 147 181 37 115 45 183 39 323 -5 126 -7
137 -52 257 -74 196 -101 241 -214 364 -38 40 -74 83 -80 94 -6 11 -20 73 -31
138 -42 234 -76 274 -374 444 -198 112 -231 151 -231 265 0 70 22 221 36 247
6 10 45 44 87 75 42 31 100 75 127 99 57 47 158 110 225 139 25 10 61 31 80
46 19 14 103 71 185 127 171 114 213 154 250 234 56 123 53 242 -8 320 -31 40
-128 49 -250 23 -55 -11 -90 -28 -185 -91 -145 -96 -290 -204 -319 -238 -26
-30 -160 -118 -253 -167 -40 -21 -86 -56 -120 -93 -30 -32 -96 -100 -145 -151
-95 -96 -197 -226 -242 -304 -15 -25 -59 -98 -98 -161 -108 -172 -247 -450
-282 -565 -143 -460 -156 -512 -223 -925 -12 -75 -40 -385 -40 -447 0 -119
-31 3 -111 432 -17 93 -24 485 -10 601 6 54 31 176 56 269 41 158 95 424 95
467 0 29 -28 33 -54 9 -32 -30 -106 -212 -116 -285 -5 -32 -11 -61 -14 -63
-12 -12 -39 24 -79 101 l-42 81 0 130 c1 143 16 216 95 460 21 66 54 179 73
250 19 72 58 184 87 250 29 66 76 179 105 250 29 72 74 166 99 211 25 44 59
120 76 168 17 52 49 117 78 159 227 336 307 441 432 566 52 53 133 126 180
163 74 57 231 147 325 185 90 36 258 86 362 107 216 44 327 65 472 91 80 14
169 35 200 46 34 12 84 19 131 20 41 0 122 7 180 14 146 17 280 18 376 1z
m3320 -1798 c26 -51 66 -142 89 -203 24 -60 67 -168 97 -240 101 -239 186
-546 243 -870 45 -257 39 -948 -10 -1257 -47 -298 -154 -676 -266 -943 -23
-55 -56 -148 -75 -206 -18 -58 -46 -133 -62 -165 -65 -134 -179 -336 -244
-433 -38 -57 -78 -126 -88 -153 -39 -102 -169 -288 -202 -288 -4 0 5 26 21 58
69 133 170 381 195 479 9 34 42 124 72 200 69 169 184 516 224 678 17 66 35
131 40 145 5 14 17 88 25 165 9 77 27 199 40 270 27 150 60 407 75 580 5 66
14 163 20 215 14 143 12 545 -5 773 -20 268 -65 588 -96 682 -5 17 -18 89 -29
161 -15 99 -31 163 -70 267 -45 124 -59 177 -45 177 3 0 26 -42 51 -92z
m-5806 -1418 c0 -5 -5 -10 -11 -10 -5 0 -7 5 -4 10 3 6 8 10 11 10 2 0 4 -4 4
-10z m728 -685 c54 -14 130 -55 101 -55 -17 0 -220 68 -229 77 -6 6 59 -5 128
-22z m-288 -141 c0 -8 -5 -24 -11 -36 -6 -11 -11 -40 -11 -64 -1 -47 26 -92
91 -151 34 -31 41 -33 106 -33 86 0 136 21 187 78 39 43 58 93 58 155 0 45 13
47 61 11 19 -14 51 -35 72 -45 41 -22 127 -96 127 -110 0 -4 -19 -13 -42 -19
-24 -6 -99 -33 -168 -60 -126 -49 -261 -80 -349 -80 -57 0 -148 23 -204 51
-63 33 -239 169 -234 182 4 14 34 30 172 92 106 47 145 55 145 29z m350 -4 c6
-11 20 -20 30 -20 23 0 24 -10 10 -62 -15 -52 -28 -55 -28 -7 -1 27 -8 49 -21
63 -22 24 -28 46 -11 46 5 0 14 -9 20 -20z m6 -161 c0 -11 -19 -38 -42 -59
-34 -31 -52 -40 -95 -45 -68 -8 -129 10 -146 45 -17 34 -6 40 50 28 37 -8 64
-6 122 7 40 9 79 23 85 31 17 20 26 18 26 -7z m629 -456 c-105 -215 -165 -294
-165 -219 0 42 143 315 181 346 3 3 14 21 24 40 17 34 18 34 28 13 8 -19 -3
-49 -68 -180z m-2924 15 c0 -35 -6 -99 -11 -143 -5 -44 -14 -144 -20 -221 -11
-161 -60 -604 -91 -834 -21 -154 -101 -613 -119 -680 -13 -49 -47 -229 -60
-325 -22 -152 -62 -287 -180 -615 -23 -63 -46 -128 -52 -145 -6 -16 -14 -34
-18 -40 -17 -23 -105 -227 -131 -303 -15 -45 -36 -95 -47 -110 -10 -15 -48
-81 -82 -147 -35 -66 -83 -151 -107 -188 -71 -112 -124 -208 -148 -274 -13
-34 -46 -95 -73 -135 -46 -67 -93 -154 -236 -433 -29 -55 -57 -126 -64 -157
-7 -31 -31 -103 -53 -160 -211 -540 -312 -965 -338 -1423 -21 -361 -23 -707
-6 -968 8 -137 19 -267 25 -290 16 -75 41 -259 36 -265 -8 -8 -9 -7 -63 103
-27 55 -70 141 -95 190 -88 172 -183 494 -208 707 -19 160 -8 441 23 593 41
197 108 413 192 615 26 63 63 159 81 214 18 54 38 103 42 110 5 6 47 85 92
176 46 91 105 199 131 241 62 100 101 180 128 260 12 36 34 86 50 110 15 25
61 108 101 184 40 77 89 165 108 195 43 68 92 175 122 265 12 39 32 88 43 110
11 22 54 117 95 210 166 380 203 475 257 665 18 63 58 183 88 265 130 359 263
843 282 1025 4 36 15 103 26 150 10 47 28 137 40 200 11 63 27 140 35 170 8
30 28 134 44 230 17 96 33 183 36 192 5 17 22 140 60 433 8 66 19 136 24 155
4 19 12 60 15 90 12 96 28 94 26 -2z m234 -635 c9 -32 21 -71 26 -87 5 -16 25
-97 44 -180 20 -83 40 -169 45 -191 5 -22 21 -103 35 -180 14 -77 32 -178 40
-225 23 -122 32 -246 46 -578 14 -320 2 -733 -26 -942 -36 -265 -110 -524
-268 -945 -41 -110 -91 -251 -111 -314 -20 -63 -65 -182 -100 -265 -35 -83
-68 -167 -74 -186 -6 -19 -35 -98 -66 -176 -90 -229 -149 -461 -129 -506 10
-23 10 -23 28 12 9 19 27 46 40 60 12 14 57 77 100 140 43 63 105 149 137 190
33 41 76 97 96 123 78 102 190 235 268 317 44 47 95 110 114 140 48 77 123
174 193 247 72 75 150 180 184 248 14 28 55 86 90 130 35 44 89 121 120 170
31 50 73 117 94 150 22 33 70 123 108 200 88 175 93 182 126 167 14 -6 25 -20
25 -30 0 -21 -88 -187 -126 -237 -12 -16 -35 -59 -52 -95 -48 -105 -128 -231
-198 -309 -43 -49 -115 -153 -179 -261 -21 -36 -63 -91 -92 -123 -29 -32 -81
-95 -115 -140 -34 -45 -82 -107 -108 -137 -25 -30 -55 -67 -66 -81 -50 -68
-242 -296 -308 -366 -40 -43 -79 -90 -87 -105 -22 -41 -139 -213 -213 -313
-37 -49 -89 -135 -116 -190 -44 -90 -137 -350 -155 -433 -4 -18 -22 -53 -41
-78 -38 -50 -43 -68 -73 -290 -47 -345 -54 -452 -55 -779 -1 -279 2 -342 22
-492 27 -210 53 -348 87 -473 14 -52 32 -122 41 -155 9 -33 33 -111 55 -174
22 -63 51 -156 64 -208 31 -114 205 -456 291 -571 30 -41 71 -106 91 -145 45
-90 103 -165 214 -279 93 -96 163 -190 157 -209 -4 -11 -102 78 -258 233 -38
37 -93 109 -128 165 -33 54 -94 145 -136 203 -100 140 -193 322 -256 505 -29
83 -67 188 -86 235 -146 370 -242 956 -231 1410 9 335 39 638 93 940 33 184
131 583 188 765 24 77 49 176 56 219 7 44 27 119 45 167 19 48 53 141 75 206
23 65 48 132 56 148 58 129 181 449 204 534 16 58 49 157 74 220 112 288 192
585 241 901 23 142 32 731 16 948 -24 312 -83 711 -175 1182 -34 172 -41 230
-28 230 6 0 19 -26 27 -57z m1498 -1574 c-1 -49 -16 -127 -44 -234 -23 -88
-48 -187 -56 -220 -55 -225 -143 -406 -188 -389 -34 13 -28 37 75 294 70 176
81 211 101 320 28 154 82 314 103 307 7 -3 10 -31 9 -78z m1320 -9329 c20 0
23 -30 5 -48 -9 -9 -168 -12 -654 -12 -541 0 -643 -2 -653 -14 -9 -11 -10
-186 -5 -720 l7 -706 533 0 c484 0 532 -1 538 -16 12 -32 -3 -51 -46 -58 -23
-4 -262 -6 -531 -6 -269 1 -491 -1 -494 -4 -7 -7 -5 -1234 2 -1351 3 -49 8
-105 11 -122 l5 -33 645 0 644 0 12 -26 c10 -21 9 -27 -3 -35 -17 -11 -21 -11
-757 -14 -460 -2 -586 0 -600 11 -16 12 -17 99 -17 1581 l0 1568 40 6 c22 3
324 4 670 2 347 -2 638 -4 648 -3z"/>
<path d="M18717 34347 c3 -5 25 -27 49 -49 50 -46 79 -90 88 -133 12 -58 -4
-61 -91 -15 -84 43 -163 63 -163 40 0 -29 172 -160 340 -257 136 -79 306 -187
456 -288 49 -33 136 -85 194 -115 58 -31 202 -123 320 -205 118 -82 261 -179
317 -217 56 -37 110 -74 120 -82 10 -8 39 -32 64 -53 26 -21 84 -72 130 -113
46 -42 111 -94 144 -115 33 -22 103 -85 157 -139 125 -127 184 -167 171 -116
-3 11 -9 20 -14 20 -5 0 -15 15 -23 33 -7 17 -25 45 -40 60 -14 15 -26 30 -26
33 0 9 -24 34 -160 173 -74 75 -166 172 -205 216 -38 43 -97 103 -129 134 -89
85 -278 273 -307 306 -14 17 -54 55 -90 85 -58 50 -142 127 -300 278 -31 30
-81 70 -110 90 -68 45 -172 125 -224 172 -102 92 -245 163 -460 230 -74 23
-217 42 -208 27z"/>
<path d="M18485 33809 c-35 -60 -35 -62 -19 -88 18 -26 68 -87 157 -187 52
-59 55 -71 30 -89 -15 -11 -12 -18 33 -71 27 -33 63 -77 79 -99 16 -22 53 -64
82 -94 29 -30 53 -56 53 -59 0 -2 15 -22 33 -45 18 -23 47 -71 65 -107 18 -36
47 -88 65 -117 18 -28 53 -84 78 -125 53 -85 74 -137 60 -151 -6 -6 -27 18
-57 64 -25 41 -68 102 -95 136 -47 60 -89 129 -89 146 0 18 -93 133 -195 242
-134 143 -156 171 -189 228 -26 43 -31 47 -66 47 -54 0 -235 -38 -306 -65
-147 -55 -219 -138 -289 -331 -34 -95 -104 -211 -146 -245 -19 -15 -58 -37
-87 -48 -28 -11 -108 -48 -179 -81 -70 -34 -155 -73 -188 -86 -139 -57 -223
-104 -268 -153 -80 -85 -72 -158 23 -226 41 -30 43 -30 208 -36 188 -7 190 -7
390 -108 187 -95 238 -113 325 -119 114 -7 154 8 224 81 116 123 140 143 197
170 84 40 263 83 397 96 220 21 605 7 655 -25 33 -20 220 -472 203 -489 -3 -2
-41 9 -85 26 -148 58 -242 80 -364 86 -95 4 -129 2 -195 -15 -59 -15 -98 -19
-150 -15 -86 7 -199 -21 -270 -66 -35 -22 -55 -29 -76 -24 -24 5 -37 -3 -87
-51 -33 -31 -73 -83 -90 -114 -34 -64 -58 -150 -44 -164 10 -10 168 5 282 27
41 8 118 19 170 25 52 6 149 20 215 30 219 35 324 42 426 31 164 -18 334 -68
343 -99 14 -47 76 -463 76 -505 0 -16 -56 -47 -85 -47 -13 0 -44 19 -72 45
-49 43 -128 75 -283 114 -59 15 -214 29 -265 24 -197 -18 -286 -45 -397 -119
-40 -27 -75 -50 -77 -51 -2 -2 -2 -5 0 -8 3 -2 52 19 109 46 58 28 130 55 160
61 30 5 68 12 83 15 30 6 62 -15 70 -47 7 -26 -6 -41 -44 -49 -42 -9 -41 -32
1 -75 24 -25 39 -30 89 -34 75 -5 100 1 134 32 32 30 34 58 6 121 -11 25 -19
48 -17 51 12 12 113 -29 183 -74 180 -115 155 -106 291 -104 145 3 134 18 134
-175 0 -73 4 -133 8 -133 9 0 22 171 22 281 0 30 5 60 11 66 9 9 9 20 1 40 -6
15 -13 91 -16 168 -3 77 -9 179 -12 228 -7 83 -6 87 12 81 39 -14 152 -84 199
-123 27 -23 53 -41 57 -41 41 0 -80 246 -157 323 -15 15 -51 41 -80 57 -28 16
-59 38 -68 48 -12 12 -30 83 -52 198 -19 99 -41 211 -50 251 -21 101 -20 102
68 87 73 -13 117 -10 117 8 0 10 -40 74 -110 178 -21 30 -41 66 -45 80 -13 46
-98 204 -136 255 -44 59 -162 175 -178 175 -11 0 -41 51 -41 69 0 17 -50 117
-68 137 -9 11 -62 71 -116 134 -54 63 -124 142 -156 176 -31 33 -63 69 -71 80
-8 10 -35 36 -61 57 -26 21 -53 43 -60 50 -7 7 -65 55 -128 108 -63 53 -131
110 -150 127 -19 18 -40 32 -47 32 -7 0 -28 -28 -48 -61z m822 -2049 c44 0 36
-15 -32 -64 -94 -67 -139 -90 -210 -108 -38 -10 -73 -18 -77 -18 -20 0 -4 30
35 68 34 33 52 43 90 48 51 7 46 24 -7 24 -25 0 -27 2 -15 16 11 14 27 16 89
12 41 -3 63 -3 48 -1 -16 2 -28 8 -28 12 0 16 16 22 44 17 16 -3 44 -6 63 -6z
m-697 -115 c-7 -8 -21 -15 -31 -15 -23 0 -25 -16 -3 -24 9 -3 65 -6 125 -6
105 0 131 -8 92 -28 -18 -9 -332 -76 -405 -86 -42 -5 -50 9 -20 34 61 53 119
90 146 95 17 4 42 15 56 25 31 24 59 27 40 5z"/>
<path d="M20460 33664 c0 -10 83 -124 90 -124 9 0 224 -211 330 -325 42 -44
129 -125 194 -180 172 -146 196 -158 196 -97 0 34 -52 101 -144 184 -39 35
-104 99 -145 143 -130 138 -236 239 -277 263 -21 13 -82 50 -134 83 -92 57
-110 66 -110 53z"/>
<path d="M21150 33430 c6 -11 13 -20 16 -20 2 0 0 9 -6 20 -6 11 -13 20 -16
20 -2 0 0 -9 6 -20z"/>
<path d="M20150 32838 c0 -15 64 -117 209 -338 105 -159 128 -199 179 -310 8
-19 52 -100 97 -180 122 -216 219 -422 255 -540 13 -41 49 -140 81 -220 31
-80 61 -158 65 -175 4 -16 10 -34 14 -40 5 -5 15 -32 24 -60 8 -27 31 -102 51
-167 21 -64 49 -171 64 -238 l27 -122 22 19 c20 16 22 27 23 128 1 124 -4 161
-34 257 -11 37 -17 71 -13 75 4 4 25 -12 47 -35 73 -79 89 -46 83 163 -4 135
-20 224 -60 335 -39 111 -56 138 -126 210 -100 101 -209 234 -258 314 -98 159
-307 478 -319 486 -9 6 -64 88 -111 166 -77 128 -320 335 -320 272z"/>
<path d="M18830 31219 c-63 -11 -181 -63 -207 -91 -15 -17 -9 -16 42 7 109 49
169 63 312 70 297 15 483 -35 643 -171 30 -25 70 -59 89 -75 19 -16 36 -27 38
-25 11 11 -30 77 -71 113 -97 85 -268 155 -421 173 -108 12 -349 11 -425 -1z"/>
<path d="M19589 30774 c-45 -48 -141 -117 -191 -136 -127 -48 -388 -45 -558 7
-47 14 -101 30 -120 35 -69 17 -4 -16 93 -48 166 -55 363 -66 557 -32 113 21
114 21 179 77 80 68 91 81 91 105 0 26 -23 22 -51 -8z"/>
<path d="M21376 30085 c-9 -26 -7 -32 5 -12 6 10 9 21 6 23 -2 3 -7 -2 -11
-11z"/>
<path d="M18456 29753 c92 -89 96 -96 88 -183 -5 -45 -3 -70 3 -70 17 0 31 23
44 73 23 94 -14 150 -145 217 l-61 31 71 -68z"/>
<path d="M17390 29649 c-48 -19 -53 -62 -14 -108 30 -36 54 -39 72 -11 23 37
85 27 186 -30 49 -28 91 -48 94 -46 2 3 -9 21 -25 40 -90 109 -240 184 -313
155z"/>
<path d="M18055 29612 c-24 -5 -85 -61 -85 -78 0 -19 26 -24 133 -24 70 -1
110 -5 127 -15 35 -20 63 -18 93 5 47 37 -1 71 -49 35 -29 -22 -41 -18 -76 20
-34 37 -105 65 -143 57z"/>
<path d="M17616 29129 c-64 -22 -62 -21 -218 -122 -60 -38 -108 -73 -108 -78
0 -5 -3 -8 -7 -7 -13 2 -61 -20 -68 -32 -3 -5 -11 -7 -17 -4 -8 5 -9 1 -5 -10
5 -14 3 -16 -12 -11 -11 3 -22 1 -26 -5 -3 -5 -1 -10 5 -10 6 0 8 -5 5 -10 -4
-6 -10 -8 -15 -5 -13 8 -60 -36 -60 -55 0 -51 108 -177 185 -215 22 -11 53
-28 69 -39 17 -11 31 -15 35 -9 3 6 13 13 21 17 8 3 3 4 -12 1 -15 -3 -30 0
-34 7 -5 7 -3 8 7 3 8 -5 0 6 -18 24 -32 34 -63 55 -95 67 -10 3 -18 12 -18
20 0 19 -22 64 -29 60 -3 -2 -4 19 -2 46 2 41 9 57 35 83 18 18 39 35 47 38
10 4 9 6 -4 6 -10 1 -16 5 -13 10 3 4 16 6 28 4 25 -5 73 32 63 48 -6 9 28 14
70 11 15 -2 17 0 6 7 -10 7 -2 14 32 29 26 11 56 30 69 41 12 12 29 21 37 21
13 0 13 -2 2 -9 -8 -5 17 -9 65 -10 61 -1 82 -5 91 -18 10 -12 26 -16 63 -14
30 1 50 -2 50 -9 0 -5 18 -10 40 -10 22 0 40 5 40 10 0 6 37 10 93 9 50 0 86
-3 80 -6 -7 -2 -13 -8 -13 -13 0 -12 64 -32 82 -25 8 3 28 -6 46 -21 16 -15
56 -36 89 -47 32 -11 70 -31 84 -46 30 -31 63 -51 84 -51 9 0 15 -9 15 -23 0
-13 6 -29 12 -35 10 -10 10 -15 -2 -23 -11 -8 -12 -12 -2 -16 6 -2 12 -20 12
-39 0 -36 25 -49 36 -19 4 8 15 15 25 15 15 0 78 24 98 37 7 5 -94 108 -102
105 -5 -1 -6 2 -3 7 7 10 -60 60 -139 106 -27 16 -101 62 -163 103 -126 83
-209 122 -262 122 -19 0 -60 -13 -92 -28 -56 -27 -57 -27 -89 -10 -19 10 -29
18 -24 18 6 1 -1 7 -15 15 -34 19 -84 17 -154 -6z m-36 -43 c0 -2 -9 -6 -20
-9 -11 -3 -18 -1 -14 4 5 9 34 13 34 5z m260 -32 c0 -8 -4 -12 -10 -9 -5 3
-10 10 -10 16 0 5 5 9 10 9 6 0 10 -7 10 -16z m-400 -48 c0 -2 -7 -7 -16 -10
-8 -3 -12 -2 -9 4 6 10 25 14 25 6z m961 -103 c13 -15 12 -15 -8 -4 -24 12
-29 21 -14 21 5 0 15 -7 22 -17z m-1216 -93 c3 -5 1 -10 -4 -10 -6 0 -11 5
-11 10 0 6 2 10 4 10 3 0 8 -4 11 -10z"/>
<path d="M17340 28900 c0 -5 5 -10 10 -10 6 0 10 5 10 10 0 6 -4 10 -10 10 -5
0 -10 -4 -10 -10z"/>
<path d="M17308 28883 c7 -3 16 -2 19 1 4 3 -2 6 -13 5 -11 0 -14 -3 -6 -6z"/>
<path d="M17790 28871 c0 -5 12 -11 28 -14 15 -2 -13 -4 -62 -5 -149 -2 -109
-12 60 -14 136 -2 146 -3 69 -7 l-90 -6 73 -7 c69 -7 132 4 132 22 0 12 -54
20 -93 13 -26 -4 -41 -1 -52 11 -18 17 -65 22 -65 7z"/>
<path d="M17903 28873 c9 -2 25 -2 35 0 9 3 1 5 -18 5 -19 0 -27 -2 -17 -5z"/>
<path d="M18080 28811 c0 -5 -10 -12 -22 -14 -20 -4 -20 -4 4 -6 28 -1 45 13
28 24 -5 3 -10 2 -10 -4z"/>
<path d="M18118 28783 c7 -3 16 -2 19 1 4 3 -2 6 -13 5 -11 0 -14 -3 -6 -6z"/>
<path d="M17600 28690 c0 -5 5 -10 11 -10 5 0 7 5 4 10 -3 6 -8 10 -11 10 -2
0 -4 -4 -4 -10z"/>
<path d="M17653 28693 c9 -2 23 -2 30 0 6 3 -1 5 -18 5 -16 0 -22 -2 -12 -5z"/>
<path d="M17848 28693 c7 -3 16 -2 19 1 4 3 -2 6 -13 5 -11 0 -14 -3 -6 -6z"/>
<path d="M17840 28672 c0 -4 18 -6 40 -4 22 2 40 6 40 8 0 2 -18 4 -40 4 -22
0 -40 -3 -40 -8z"/>
<path d="M18038 28663 c7 -3 16 -2 19 1 4 3 -2 6 -13 5 -11 0 -14 -3 -6 -6z"/>
<path d="M17985 28650 c11 -5 29 -8 40 -8 16 0 15 2 -5 8 -34 11 -60 11 -35 0z"/>
<path d="M18458 28633 c26 -5 29 -19 5 -27 -14 -4 -14 -4 2 -3 29 3 25 32 -5
34 -22 1 -22 1 -2 -4z"/>
<path d="M18435 28580 c-3 -5 -2 -10 4 -10 5 0 13 5 16 10 3 6 2 10 -4 10 -5
0 -13 -4 -16 -10z"/>
<path d="M18327 28546 c-4 -10 -1 -13 9 -9 15 6 19 23 5 23 -5 0 -11 -7 -14
-14z"/>
<path d="M17406 28515 c-16 -12 -17 -15 -4 -15 8 0 21 7 28 15 16 19 1 19 -24
0z"/>
<path d="M18250 28493 c-29 -15 -54 -22 -70 -18 -16 4 -20 3 -12 -3 16 -11
-29 -21 -123 -28 -67 -5 -125 -21 -125 -34 0 -5 -15 -11 -32 -13 -25 -3 -21
-4 17 -6 38 -2 45 -4 30 -11 -27 -12 -14 -12 90 1 50 6 100 17 113 25 12 8 22
12 22 9 0 -3 23 6 51 21 28 14 49 28 46 30 -3 3 -15 1 -26 -6 -14 -7 -21 -7
-21 0 0 10 19 14 56 11 14 -1 23 6 27 20 4 15 11 20 22 15 9 -3 13 -2 10 4 -9
14 -24 11 -75 -17z"/>
<path d="M17421 28493 c-32 -13 210 -110 249 -100 10 3 21 0 22 -5 2 -6 16 -6
38 0 19 6 27 11 18 11 -10 1 -18 6 -18 11 0 14 -35 26 -100 34 -39 5 -51 4
-40 -3 19 -13 0 -14 -20 -1 -10 6 -11 10 -2 10 6 0 12 5 12 11 0 7 -12 9 -36
4 -27 -5 -34 -3 -28 6 5 9 1 11 -14 7 -12 -4 -26 0 -33 8 -12 14 -24 16 -48 7z"/>
<path d="M17788 28393 c12 -2 30 -2 40 0 9 3 -1 5 -23 4 -22 0 -30 -2 -17 -4z"/>
<path d="M17715 28243 c-115 -14 -227 -34 -249 -44 -49 -23 -27 -112 35 -145
46 -23 78 -17 184 35 55 28 123 55 150 62 28 6 56 13 63 15 24 7 11 34 -25 52
-41 21 -109 32 -158 25z"/>
<path d="M14346 24948 c-3 -13 -6 -30 -6 -38 1 -13 2 -13 9 0 16 27 22 60 13
60 -5 0 -12 -10 -16 -22z"/>
<path d="M12405 28300 c-16 -17 -24 -30 -19 -30 13 0 59 48 52 55 -2 3 -17 -9
-33 -25z"/>
<path d="M20426 25319 c-33 -5 -87 -16 -120 -24 -64 -16 -195 -76 -219 -100
-8 -7 -49 -36 -92 -64 -43 -29 -95 -66 -115 -84 -34 -30 -120 -139 -120 -152
0 -4 -11 -31 -25 -61 -120 -262 -145 -370 -152 -652 -9 -318 26 -658 107
-1067 51 -255 69 -358 74 -425 6 -71 28 -164 74 -310 86 -273 102 -320 126
-372 14 -31 26 -62 26 -68 0 -10 31 -90 65 -165 7 -16 16 -41 20 -55 4 -14 18
-41 31 -60 13 -20 32 -67 42 -105 9 -39 32 -96 50 -127 17 -32 32 -61 32 -66
0 -4 7 -17 15 -27 68 -88 115 -151 145 -192 99 -135 165 -169 233 -121 46 33
70 63 124 156 26 46 56 97 66 114 27 45 55 134 67 212 8 48 32 114 78 215 88
194 132 265 205 331 34 30 81 74 104 97 36 34 220 153 236 153 3 0 56 24 119
53 62 30 138 59 168 65 88 17 159 47 286 123 119 71 235 157 287 213 78 83
127 188 127 268 0 89 -87 236 -300 507 -94 119 -118 157 -162 251 -19 41 -57
103 -84 136 -89 112 -254 356 -329 489 -58 103 -138 218 -204 293 -38 42 -97
120 -132 172 -67 101 -129 167 -194 207 -63 40 -116 75 -164 111 -134 101
-340 156 -495 131z"/>
<path d="M23450 19269 c-293 -22 -585 -106 -738 -211 -231 -160 -364 -428
-395 -792 -14 -176 -13 -1507 2 -1811 12 -239 29 -348 72 -473 87 -248 245
-427 457 -516 237 -100 582 -154 907 -143 400 13 709 120 932 322 162 146 248
348 295 695 18 135 18 1558 0 1830 -31 457 -127 660 -412 874 -84 63 -152 96
-284 140 -235 79 -526 109 -836 85z m459 -359 c203 -33 319 -79 425 -166 127
-105 210 -239 246 -400 33 -143 42 -444 37 -1194 -5 -690 -8 -751 -47 -880
-43 -144 -196 -346 -330 -435 -191 -127 -486 -173 -827 -130 -221 28 -376 104
-521 254 -78 82 -123 153 -156 253 -50 148 -51 172 -51 1108 0 948 -1 938 56
1091 92 252 274 413 548 484 153 40 428 46 620 15z"/>
<path d="M23455 18874 c-87 -12 -228 -50 -290 -77 -154 -68 -244 -145 -321
-276 -75 -128 -93 -201 -105 -437 -14 -257 -6 -1541 10 -1669 23 -187 68 -296
171 -415 197 -230 705 -328 1080 -208 268 86 417 220 509 457 54 141 56 174
54 1021 -3 929 -10 1050 -73 1192 -59 135 -231 297 -363 344 -141 51 -238 66
-442 69 -110 2 -213 1 -230 -1z m405 -414 c140 -40 200 -93 275 -239 55 -110
57 -143 58 -916 0 -787 -2 -810 -65 -945 -75 -158 -267 -262 -483 -263 -244
-1 -390 84 -490 286 l-48 97 -7 132 c-4 73 -4 437 0 808 7 754 3 715 81 846
69 118 164 184 299 211 94 18 286 10 380 -17z"/>
<path d="M13460 19219 c-475 -5 -870 -11 -877 -13 -24 -10 -16 -687 9 -711 1
-2 300 -6 663 -10 363 -4 668 -9 678 -11 26 -8 21 -33 -16 -89 -19 -28 -55
-90 -82 -140 -74 -140 -169 -306 -256 -447 -43 -71 -90 -148 -102 -171 -24
-43 -206 -360 -312 -542 -31 -55 -92 -158 -135 -230 -99 -166 -253 -433 -320
-554 -29 -52 -69 -122 -89 -155 l-37 -61 4 -332 c3 -253 7 -336 17 -350 13
-17 70 -18 1169 -21 1137 -2 1155 -2 1166 17 11 21 12 514 1 635 l-6 69 -335
4 c-439 5 -1031 20 -1038 27 -11 11 82 183 204 376 40 63 100 167 135 230 34
63 99 176 144 251 46 75 100 167 121 205 20 38 87 153 148 256 173 292 228
388 264 458 19 36 60 108 92 160 32 52 74 129 95 170 21 41 64 108 96 148 32
40 63 89 69 110 7 24 10 155 8 382 l-3 345 -305 1 c-168 0 -694 -3 -1170 -7z
m792 -347 c190 -4 350 -10 354 -14 30 -31 -18 -137 -214 -468 -80 -135 -315
-547 -462 -810 -47 -85 -131 -234 -187 -330 -55 -96 -140 -245 -188 -330 -81
-143 -138 -243 -197 -346 -12 -22 -67 -119 -122 -215 -54 -96 -115 -203 -136
-239 -76 -131 -150 -281 -150 -304 0 -22 4 -24 83 -31 45 -4 402 -5 794 -4
655 4 714 3 729 -13 23 -23 12 -44 -28 -51 -53 -10 -1580 10 -1613 20 -27 9
-30 14 -29 50 0 32 26 87 119 259 65 120 171 309 235 419 125 213 252 436 465
815 139 248 240 427 413 730 58 102 110 194 116 205 6 11 18 31 27 45 9 14 60
104 114 200 54 96 120 213 147 259 27 46 47 89 44 96 -4 10 -167 13 -801 12
-557 0 -799 3 -807 11 -6 6 -8 18 -5 26 6 14 59 16 479 15 260 -1 629 -4 820
-7z"/>
<path d="M19076 19205 c-11 -30 -7 -3803 5 -3810 5 -4 144 -9 307 -11 163 -2
330 -6 370 -9 l72 -5 0 328 c0 422 9 667 26 690 10 14 30 17 127 17 100 0 118
-2 137 -20 26 -23 113 -198 206 -415 37 -85 85 -193 107 -240 22 -47 57 -123
79 -170 22 -47 53 -106 70 -132 l30 -48 394 4 c217 2 398 6 401 10 4 3 -7 34
-24 69 -17 34 -50 107 -73 162 -23 55 -87 192 -142 305 -55 113 -124 267 -154
343 -30 76 -65 157 -79 181 -38 65 -34 87 21 110 86 35 231 192 294 316 40 80
86 241 99 345 18 158 22 369 12 775 -10 417 -18 490 -65 629 -56 166 -171 313
-328 419 -91 62 -196 105 -338 140 l-105 26 -721 3 c-661 4 -722 3 -728 -12z
m1359 -336 c44 -6 105 -19 137 -30 177 -59 353 -234 403 -402 24 -80 37 -410
30 -772 -7 -328 -14 -411 -41 -493 -25 -73 -92 -178 -151 -237 -68 -67 -205
-137 -328 -167 -49 -12 -91 -23 -93 -24 -2 -1 19 -47 47 -102 28 -56 83 -172
122 -259 69 -152 293 -598 310 -617 10 -11 12 -56 3 -56 -26 0 -53 37 -101
138 -66 143 -263 547 -358 737 l-70 140 -420 0 -420 0 -5 -487 c-4 -356 -8
-490 -17 -499 -17 -17 -41 -4 -45 23 -4 28 2 3099 7 3113 4 14 880 8 990 -6z"/>
<path d="M19513 18814 c-20 -8 -19 -1982 0 -2008 13 -18 35 -18 438 -13 480 6
549 15 688 83 141 70 250 216 282 379 19 95 20 1050 2 1138 -27 128 -116 252
-241 335 -29 19 -89 47 -135 61 l-82 25 -470 3 c-258 1 -476 0 -482 -3z m838
-393 c71 -27 125 -66 173 -125 62 -74 68 -116 69 -466 1 -340 -5 -390 -65
-482 -39 -61 -123 -133 -176 -152 -68 -24 -184 -36 -352 -36 l-158 0 -7 328
c-9 397 1 943 18 955 7 5 109 6 227 4 188 -4 222 -8 271 -26z"/>
<path d="M24055 14584 c-188 -28 -274 -54 -367 -110 -114 -69 -216 -214 -253
-359 -30 -116 -37 -353 -26 -840 11 -483 16 -535 63 -655 63 -159 208 -276
403 -324 85 -21 406 -37 497 -24 253 34 468 171 554 351 59 126 64 183 64 807
0 435 -3 560 -15 621 -42 221 -139 349 -340 449 -143 71 -191 82 -385 85 -91
2 -178 1 -195 -1z m321 -220 c112 -23 174 -56 244 -130 130 -140 132 -149 134
-809 1 -489 0 -535 -17 -590 -34 -110 -119 -224 -208 -281 -75 -47 -141 -59
-319 -58 -91 0 -192 6 -225 13 -151 32 -271 138 -316 279 -19 61 -21 96 -26
417 -5 387 8 751 31 833 64 226 239 339 529 341 54 1 132 -6 173 -15z"/>
<path d="M24039 14336 c-126 -23 -249 -108 -300 -207 -54 -106 -60 -143 -71
-384 -10 -248 -3 -719 13 -852 21 -179 104 -282 269 -334 144 -46 432 -34 543
23 97 49 193 170 214 272 16 77 18 1037 2 1136 -22 141 -104 256 -222 310
-100 46 -302 62 -448 36z m291 -247 c74 -34 110 -67 144 -129 29 -52 29 -54
37 -309 5 -142 5 -351 0 -467 -10 -248 -23 -298 -101 -375 -125 -124 -311
-113 -437 25 -78 86 -78 82 -78 621 0 467 0 470 22 510 28 50 49 74 93 106 54
40 88 49 180 46 66 -2 97 -9 140 -28z"/>
<path d="M21958 14569 c-98 -8 -241 -45 -313 -82 -151 -76 -287 -268 -314
-444 -13 -84 -14 -530 -1 -973 9 -340 16 -382 77 -484 85 -141 232 -249 399
-292 94 -24 110 -25 319 -21 233 4 238 4 393 66 80 32 176 97 228 154 50 55
103 160 124 242 16 69 29 316 30 583 l0 222 -427 -2 -428 -3 -3 -194 c-1 -107
1 -198 6 -203 4 -4 90 -11 191 -15 l184 -6 -6 -82 c-14 -196 -106 -283 -307
-293 -81 -3 -103 -1 -150 18 -64 25 -104 59 -133 115 -18 35 -21 68 -30 270
-5 127 -7 350 -4 496 l4 265 28 44 c15 24 51 67 79 95 75 76 162 92 306 59
122 -27 193 -103 210 -223 11 -80 29 -116 58 -115 12 0 112 1 223 2 l201 2 -6
28 c-4 15 -11 95 -16 177 -11 172 -26 224 -95 321 -64 89 -136 150 -239 199
-109 52 -149 62 -297 75 -126 11 -150 11 -291 -1z m317 -230 c39 -5 101 -24
138 -41 121 -56 221 -190 234 -313 9 -87 -17 -68 -42 31 -29 115 -74 177 -170
236 -99 61 -148 72 -315 72 -219 -1 -320 -33 -413 -133 -88 -94 -113 -183
-122 -431 -8 -197 9 -829 25 -933 13 -87 37 -134 99 -189 36 -33 70 -52 123
-69 66 -22 90 -24 248 -24 242 0 344 29 443 127 89 88 110 181 105 463 l-3
180 -232 -4 c-227 -3 -233 -3 -233 17 0 11 7 23 16 26 31 12 459 7 472 -6 9
-9 12 -72 12 -223 0 -252 -15 -333 -75 -421 -83 -120 -170 -172 -326 -195 -97
-14 -299 -6 -374 14 -118 33 -220 107 -268 195 -58 107 -61 138 -62 702 0 571
3 609 65 717 108 189 307 250 655 202z"/>
<path d="M16325 14538 c-395 -4 -722 -11 -726 -16 -4 -4 -9 -95 -10 -202 l-2
-195 251 -6 c139 -3 255 -9 259 -13 5 -4 10 -409 13 -899 l5 -892 230 0 230 0
-4 904 -4 904 251 -5 250 -5 7 101 c8 115 -5 329 -20 331 -5 1 -334 -2 -730
-7z m499 -194 c9 -3 16 -12 16 -20 0 -12 -39 -14 -222 -14 -123 0 -230 -5
-238 -10 -13 -8 -15 -103 -12 -767 1 -417 5 -827 8 -910 7 -151 3 -173 -25
-140 -16 19 -20 224 -26 1072 l-4 750 -208 -3 c-211 -3 -293 4 -300 25 -3 8
15 13 54 16 103 6 941 7 957 1z"/>
<path d="M18945 14538 c-44 -5 -138 -7 -209 -4 l-128 5 4 -1105 c3 -798 7
-1107 15 -1115 8 -8 187 -13 607 -17 l596 -5 0 222 c0 203 -1 221 -17 222 -10
1 -174 1 -364 -1 -258 -2 -348 1 -354 9 -4 7 -11 409 -16 894 -5 485 -11 888
-14 895 -5 13 -6 13 -120 0z m-92 -1074 c5 -648 10 -900 18 -910 9 -11 82 -14
377 -16 347 -3 367 -4 370 -21 4 -18 -12 -19 -381 -15 -212 1 -388 6 -392 10
-4 4 -12 328 -18 720 -9 665 -5 1128 12 1128 4 0 11 -403 14 -896z"/>
<path d="M13960 14530 c-91 -3 -170 -8 -177 -13 -15 -9 -43 -97 -87 -267 -18
-74 -71 -268 -116 -430 -45 -162 -103 -374 -127 -470 -25 -96 -48 -177 -50
-180 -10 -11 -33 35 -39 79 -4 25 -26 114 -49 196 -24 83 -66 242 -95 355
-103 410 -170 649 -197 703 l-14 27 -215 0 -216 0 7 -47 c6 -46 106 -443 180
-720 20 -73 51 -192 71 -265 19 -73 60 -225 90 -338 30 -113 75 -281 100 -375
49 -184 128 -441 143 -464 8 -12 50 -15 231 -15 137 -1 225 3 229 9 9 12 77
251 121 425 17 69 62 233 100 365 37 132 94 341 125 464 53 209 76 292 168
606 34 119 67 282 67 337 0 27 -2 28 -42 26 -24 -1 -117 -5 -208 -8z m8 -207
c-6 -34 -104 -369 -163 -558 -74 -235 -262 -845 -290 -940 -74 -249 -88 -288
-106 -306 -37 -37 -52 -8 -120 219 -87 291 -109 361 -194 622 -68 208 -176
563 -227 750 -5 19 -20 70 -34 113 -25 80 -31 129 -15 111 13 -13 48 -120 126
-379 89 -297 156 -511 215 -685 27 -80 61 -185 76 -235 14 -49 46 -157 71
-240 24 -82 49 -167 55 -187 6 -21 14 -38 18 -38 10 0 42 78 64 155 10 33 24
76 31 95 7 19 29 91 50 160 20 69 52 172 70 230 18 58 49 157 68 220 20 63 86
273 146 466 61 193 111 353 111 357 0 12 40 97 46 97 3 0 4 -12 2 -27z"/>
<path d="M14875 14530 l-180 -5 -3 -1103 c-2 -877 0 -1103 10 -1107 7 -2 108
-5 225 -7 l211 -3 4 40 c2 22 2 525 0 1118 l-5 1077 -41 -2 c-22 -1 -122 -5
-221 -8z m75 -1101 c0 -517 -4 -938 -8 -935 -10 6 -24 1821 -15 1855 3 12 9
21 14 21 5 0 9 -403 9 -941z"/>
<path d="M17546 14506 c-8 -39 -8 -1834 0 -2037 l7 -164 221 0 c136 0 224 4
228 10 9 12 10 1549 1 1936 l-6 284 -223 0 -222 0 -6 -29z m229 -323 c9 -194
-1 -1632 -11 -1657 -3 -9 -10 -16 -15 -16 -10 0 -13 1833 -2 1843 17 18 21 -6
28 -170z"/>
<path d="M20480 14530 l-185 -5 -2 -765 c-2 -421 1 -918 5 -1105 l7 -340 228
-3 227 -2 0 1115 0 1115 -47 -2 c-27 -1 -131 -5 -233 -8z m63 -182 c3 -13 6
-401 7 -863 1 -1088 3 -1005 -13 -1005 -11 0 -15 50 -20 242 -9 315 -9 1633 0
1641 12 13 21 7 26 -15z"/>
<path d="M13851 10832 l-43 -3 6 -37 c3 -20 6 -198 6 -394 l0 -357 30 -16 c34
-18 247 -21 343 -5 113 18 157 82 157 227 0 94 -17 144 -56 170 -30 19 -30 33
-2 69 19 24 23 43 26 129 4 91 2 103 -18 128 -12 15 -38 36 -58 46 -53 27
-276 51 -391 43z m248 -103 c36 -6 76 -18 89 -26 51 -32 51 -120 0 -172 -30
-31 -31 -31 -137 -31 -70 0 -111 4 -119 12 -13 13 -17 183 -6 212 7 19 76 21
173 5z m102 -345 c36 -33 50 -72 51 -146 1 -116 -27 -135 -192 -137 -36 -1
-82 4 -102 10 l-38 10 0 118 c0 78 4 123 13 134 19 27 65 37 159 34 70 -3 91
-7 109 -23z"/>
<path d="M16725 10832 l-80 -3 3 -397 c2 -257 7 -401 14 -409 6 -7 21 -13 34
-13 34 0 44 33 44 143 0 142 -8 133 128 140 259 13 312 57 312 256 0 83 -4
105 -25 149 -51 106 -172 143 -430 134z m278 -125 c44 -19 67 -62 74 -138 5
-46 1 -66 -17 -103 -20 -42 -27 -47 -77 -62 -30 -9 -94 -17 -141 -18 l-86 -1
-7 30 c-9 40 -10 263 -2 294 6 24 7 24 113 18 59 -3 123 -12 143 -20z"/>
<path d="M17854 10819 c-29 -11 -72 -37 -97 -59 -65 -57 -82 -135 -80 -362 1
-92 7 -185 13 -207 12 -47 60 -112 113 -155 38 -31 40 -31 155 -31 110 0 120
2 170 29 114 63 137 136 129 406 -8 299 -35 349 -207 385 -93 20 -134 18 -196
-6z m231 -114 c26 -10 41 -26 58 -62 20 -44 22 -64 22 -224 0 -164 -2 -179
-23 -226 -30 -64 -65 -84 -154 -91 -78 -5 -150 16 -172 51 -23 36 -36 146 -35
293 1 241 23 274 181 274 55 0 102 -6 123 -15z"/>
<path d="M18926 10825 c-77 -27 -104 -60 -125 -148 -16 -67 -14 -102 8 -145
33 -63 70 -90 154 -111 130 -34 179 -54 220 -93 39 -37 39 -37 35 -103 -5 -89
-32 -117 -115 -123 -90 -6 -134 10 -207 78 -75 71 -102 77 -112 25 -9 -50 3
-84 40 -120 46 -43 136 -76 228 -82 95 -7 148 10 206 66 86 84 96 245 19 314
-24 21 -158 87 -178 87 -6 0 -47 12 -90 26 -101 33 -133 67 -126 131 10 88 59
115 180 99 60 -8 85 -22 134 -77 22 -25 44 -39 59 -39 81 0 6 155 -99 208 -52
26 -168 30 -231 7z"/>
<path d="M21542 10832 l-22 -3 2 -401 c3 -366 4 -402 20 -412 13 -8 24 -6 45
10 l28 21 3 390 2 391 -27 3 c-16 2 -38 3 -51 1z"/>
<path d="M22671 10813 c-19 -20 -39 -65 -65 -148 -50 -157 -125 -389 -143
-443 -8 -24 -20 -41 -27 -39 -6 2 -23 44 -37 93 -15 49 -42 139 -61 199 -19
61 -45 155 -58 210 -26 115 -48 148 -95 143 -25 -2 -31 -8 -33 -31 -2 -16 5
-52 16 -80 11 -29 30 -86 42 -127 52 -184 94 -320 115 -380 13 -36 29 -83 34
-106 6 -23 22 -53 36 -68 60 -65 117 -6 164 171 12 46 28 98 36 116 13 31 113
381 129 450 8 33 0 67 -15 67 -6 0 -23 -12 -38 -27z"/>
<path d="M23313 10828 c-49 -13 -53 -44 -53 -411 0 -336 4 -378 41 -398 12 -6
84 -9 177 -8 237 3 252 7 238 63 -6 24 -7 24 -164 27 -116 3 -163 8 -175 18
-14 11 -17 33 -17 120 0 70 4 111 12 119 8 8 50 12 123 12 117 1 145 10 145
48 0 32 -37 53 -82 46 -44 -7 -157 3 -178 16 -19 12 -26 226 -9 247 9 10 54
13 191 13 l179 0 -3 32 c-2 24 -10 36 -28 44 -31 14 -352 24 -397 12z"/>
<path d="M14894 10793 c-23 -55 -23 -692 0 -747 l15 -37 205 3 c138 2 209 7
217 15 6 6 8 23 5 41 l-7 29 -154 5 c-105 3 -159 9 -169 18 -21 16 -23 224 -3
237 6 4 59 9 117 11 120 5 150 18 150 63 0 21 -5 29 -17 30 -10 0 -54 2 -98 3
-100 4 -151 19 -159 49 -3 12 -6 63 -6 114 0 79 2 92 18 97 9 3 78 6 152 7
187 1 200 4 200 41 0 49 -38 58 -260 58 l-191 0 -15 -37z"/>
<path d="M19865 10818 c-3 -7 -4 -189 -3 -403 l3 -390 26 -3 c16 -2 32 5 44
18 17 19 20 40 23 158 1 76 -1 247 -5 382 l-8 245 -38 3 c-24 2 -39 -1 -42
-10z"/>
<path d="M20514 10805 c-14 -14 -24 -31 -21 -38 7 -23 51 -37 102 -31 43 5 53
3 70 -16 19 -21 20 -40 25 -359 l5 -336 31 -3 c25 -2 37 3 53 24 20 26 21 36
21 329 0 303 5 357 36 369 8 3 37 1 65 -5 45 -10 52 -9 64 8 20 25 18 47 -3
66 -16 15 -47 17 -221 17 l-202 0 -25 -25z"/>
</g>
</svg>
